<?xml version="1.0" standalone="no"?>
<!DOCTYPE svg PUBLIC "-//W3C//DTD SVG 20010904//EN"
 "http://www.w3.org/TR/2001/REC-SVG-20010904/DTD/svg10.dtd">
<svg version="1.0" xmlns="http://www.w3.org/2000/svg"
 width="150.000000pt" height="150.000000pt" viewBox="0 0 150.000000 150.000000"
 preserveAspectRatio="xMidYMid meet">

<g transform="translate(0.000000,150.000000) scale(0.100000,-0.100000)"
fill="#000000" stroke="none">
<path d="M205 1482 c-99 -34 -174 -117 -195 -215 -8 -36 -10 -208 -8 -547 3
-482 4 -496 24 -541 28 -60 93 -125 153 -153 45 -21 55 -21 571 -21 516 0 526
0 571 21 60 28 125 93 153 153 21 45 21 55 21 571 0 516 0 526 -21 571 -28 60
-93 125 -153 153 -45 21 -58 21 -556 23 -464 2 -515 1 -560 -15z m648 -243
c20 -5 37 -15 37 -21 0 -6 -16 -64 -36 -127 -19 -64 -37 -123 -40 -131 -3 -11
-19 -15 -64 -15 l-60 0 -31 100 c-16 55 -35 115 -40 133 -20 61 -7 68 126 70
39 1 87 -3 108 -9z m-270 -174 c37 -69 67 -128 67 -131 0 -9 -76 -84 -84 -84
-6 0 -245 127 -254 135 -8 7 50 84 94 126 48 45 93 79 104 79 3 0 36 -56 73
-125z m445 101 c60 -38 174 -167 160 -181 -7 -7 -248 -135 -254 -135 -8 0 -84
76 -84 84 0 7 134 256 138 256 1 0 19 -11 40 -24z m-619 -312 c64 -19 123 -37
131 -40 11 -3 15 -19 15 -64 l0 -60 -95 -29 c-176 -54 -180 -55 -192 -43 -29
29 -17 272 14 272 6 0 64 -16 127 -36z m832 1 c18 -86 3 -245 -23 -245 -6 0
-64 16 -127 36 -64 19 -123 37 -131 40 -11 3 -15 19 -15 64 l0 60 100 31 c55
16 111 34 125 39 43 15 64 8 71 -25z m-630 -244 c22 -21 39 -42 39 -45 0 -6
-127 -245 -135 -254 -2 -2 -20 8 -42 21 -60 39 -176 168 -161 182 8 8 244 134
252 134 4 1 26 -16 47 -38z m452 -27 c67 -37 123 -68 125 -69 2 -2 -8 -20 -21
-42 -39 -60 -168 -176 -182 -161 -7 7 -135 248 -135 254 0 9 74 83 83 84 4 0
63 -30 130 -66z m-224 -124 c54 -176 55 -180 43 -192 -29 -29 -272 -17 -272
14 0 6 16 64 36 127 19 64 37 123 40 131 3 11 19 15 64 15 l60 0 29 -95z"/>
</g>
</svg>
